G75*
%MOIN*%
%OFA0B0*%
%FSLAX25Y25*%
%IPPOS*%
%LPD*%
%AMOC8*
5,1,8,0,0,1.08239X$1,22.5*
%
%ADD10C,0.07900*%
%ADD11C,0.05750*%
%ADD12C,0.05224*%
%ADD13C,0.06406*%
%ADD14C,0.06200*%
D10*
X0009150Y0011150D03*
X0009150Y0021150D03*
X0009150Y0031150D03*
X0009150Y0041150D03*
X0009150Y0051150D03*
X0009150Y0061150D03*
X0009150Y0071150D03*
X0009150Y0081150D03*
X0009150Y0091150D03*
X0009150Y0101150D03*
X0009150Y0111150D03*
X0009150Y0121150D03*
X0009150Y0131150D03*
X0009150Y0141150D03*
X0009150Y0151150D03*
X0009150Y0161150D03*
X0009150Y0171150D03*
X0009150Y0181150D03*
X0009150Y0191150D03*
X0009150Y0201150D03*
X0019150Y0201150D03*
X0019150Y0191150D03*
X0019150Y0181150D03*
X0019150Y0171150D03*
X0019150Y0161150D03*
X0019150Y0151150D03*
X0019150Y0141150D03*
X0019150Y0131150D03*
X0019150Y0121150D03*
X0019150Y0111150D03*
X0019150Y0101150D03*
X0019150Y0091150D03*
X0019150Y0081150D03*
X0019150Y0071150D03*
X0019150Y0061150D03*
X0019150Y0051150D03*
X0019150Y0041150D03*
X0019150Y0031150D03*
X0019150Y0021150D03*
X0019150Y0011150D03*
X0031150Y0011150D03*
X0031150Y0021150D03*
X0031150Y0031150D03*
X0031150Y0051150D03*
X0031150Y0061150D03*
X0031150Y0071150D03*
X0031150Y0081150D03*
X0041150Y0031150D03*
X0041150Y0021150D03*
X0041150Y0011150D03*
D11*
X0035650Y0190713D03*
X0035650Y0198587D03*
D12*
X0045650Y0185650D03*
D13*
X0041150Y0158150D03*
X0046650Y0138650D03*
X0033724Y0158224D03*
D14*
X0046697Y0112641D03*
M02*
