G75*
%MOIN*%
%OFA0B0*%
%FSLAX25Y25*%
%IPPOS*%
%LPD*%
%AMOC8*
5,1,8,0,0,1.08239X$1,22.5*
%
%ADD10C,0.00000*%
%ADD11C,0.00200*%
%ADD12C,0.00600*%
%ADD13R,0.02165X0.01969*%
%ADD14C,0.00800*%
%ADD15C,0.00100*%
%ADD16C,0.00500*%
%ADD17C,0.00400*%
D10*
X0001150Y0001150D02*
X0001150Y0211150D01*
X0051150Y0211150D01*
X0051150Y0001150D01*
X0001150Y0001150D01*
D11*
X0037850Y0047739D02*
X0037850Y0048472D01*
X0037850Y0047739D02*
X0037852Y0047696D01*
X0037857Y0047654D01*
X0037867Y0047612D01*
X0037879Y0047572D01*
X0037896Y0047532D01*
X0037916Y0047494D01*
X0037938Y0047459D01*
X0037964Y0047425D01*
X0037993Y0047393D01*
X0038025Y0047364D01*
X0038059Y0047338D01*
X0038095Y0047316D01*
X0038132Y0047296D01*
X0038172Y0047279D01*
X0038212Y0047267D01*
X0038254Y0047257D01*
X0038296Y0047252D01*
X0038339Y0047250D01*
X0039561Y0047250D01*
X0039604Y0047252D01*
X0039646Y0047257D01*
X0039688Y0047267D01*
X0039728Y0047279D01*
X0039768Y0047296D01*
X0039806Y0047316D01*
X0039841Y0047338D01*
X0039875Y0047364D01*
X0039907Y0047393D01*
X0039936Y0047425D01*
X0039962Y0047459D01*
X0039984Y0047495D01*
X0040004Y0047532D01*
X0040021Y0047572D01*
X0040033Y0047612D01*
X0040043Y0047654D01*
X0040048Y0047696D01*
X0040050Y0047739D01*
X0040050Y0048472D01*
X0038828Y0048472D01*
X0038828Y0048106D01*
X0037850Y0049554D02*
X0040050Y0050776D01*
X0037850Y0050776D01*
X0037850Y0051858D02*
X0037850Y0052469D01*
X0037850Y0051858D02*
X0040050Y0051858D01*
X0040050Y0052469D01*
X0040048Y0052517D01*
X0040042Y0052565D01*
X0040033Y0052612D01*
X0040020Y0052658D01*
X0040003Y0052703D01*
X0039983Y0052746D01*
X0039960Y0052788D01*
X0039933Y0052828D01*
X0039904Y0052866D01*
X0039871Y0052901D01*
X0039836Y0052934D01*
X0039798Y0052963D01*
X0039758Y0052990D01*
X0039716Y0053013D01*
X0039673Y0053033D01*
X0039628Y0053050D01*
X0039582Y0053063D01*
X0039535Y0053072D01*
X0039487Y0053078D01*
X0039439Y0053080D01*
X0038461Y0053080D01*
X0038413Y0053078D01*
X0038365Y0053072D01*
X0038318Y0053063D01*
X0038272Y0053050D01*
X0038227Y0053033D01*
X0038184Y0053013D01*
X0038142Y0052990D01*
X0038102Y0052963D01*
X0038064Y0052934D01*
X0038029Y0052901D01*
X0037996Y0052866D01*
X0037967Y0052828D01*
X0037940Y0052788D01*
X0037917Y0052746D01*
X0037897Y0052703D01*
X0037880Y0052658D01*
X0037867Y0052612D01*
X0037858Y0052565D01*
X0037852Y0052517D01*
X0037850Y0052469D01*
X0037850Y0049554D02*
X0040050Y0049554D01*
X0040050Y0056750D02*
X0037850Y0056750D01*
X0039072Y0057483D01*
X0037850Y0058217D01*
X0040050Y0058217D01*
X0039439Y0059248D02*
X0038461Y0059248D01*
X0038413Y0059250D01*
X0038365Y0059256D01*
X0038318Y0059265D01*
X0038272Y0059278D01*
X0038227Y0059295D01*
X0038184Y0059315D01*
X0038142Y0059338D01*
X0038102Y0059365D01*
X0038064Y0059394D01*
X0038029Y0059427D01*
X0037996Y0059462D01*
X0037967Y0059500D01*
X0037940Y0059540D01*
X0037917Y0059582D01*
X0037897Y0059625D01*
X0037880Y0059670D01*
X0037867Y0059716D01*
X0037858Y0059763D01*
X0037852Y0059811D01*
X0037850Y0059859D01*
X0037852Y0059907D01*
X0037858Y0059955D01*
X0037867Y0060002D01*
X0037880Y0060048D01*
X0037897Y0060093D01*
X0037917Y0060136D01*
X0037940Y0060178D01*
X0037967Y0060218D01*
X0037996Y0060256D01*
X0038029Y0060291D01*
X0038064Y0060324D01*
X0038102Y0060353D01*
X0038142Y0060380D01*
X0038184Y0060403D01*
X0038227Y0060423D01*
X0038272Y0060440D01*
X0038318Y0060453D01*
X0038365Y0060462D01*
X0038413Y0060468D01*
X0038461Y0060470D01*
X0039439Y0060470D01*
X0039487Y0060468D01*
X0039535Y0060462D01*
X0039582Y0060453D01*
X0039628Y0060440D01*
X0039673Y0060423D01*
X0039716Y0060403D01*
X0039758Y0060380D01*
X0039798Y0060353D01*
X0039836Y0060324D01*
X0039871Y0060291D01*
X0039904Y0060256D01*
X0039933Y0060218D01*
X0039960Y0060178D01*
X0039983Y0060136D01*
X0040003Y0060093D01*
X0040020Y0060048D01*
X0040033Y0060002D01*
X0040042Y0059955D01*
X0040048Y0059907D01*
X0040050Y0059859D01*
X0040048Y0059811D01*
X0040042Y0059763D01*
X0040033Y0059716D01*
X0040020Y0059670D01*
X0040003Y0059625D01*
X0039983Y0059582D01*
X0039960Y0059540D01*
X0039933Y0059500D01*
X0039904Y0059462D01*
X0039871Y0059427D01*
X0039836Y0059394D01*
X0039798Y0059365D01*
X0039758Y0059338D01*
X0039716Y0059315D01*
X0039673Y0059295D01*
X0039628Y0059278D01*
X0039582Y0059265D01*
X0039535Y0059256D01*
X0039487Y0059250D01*
X0039439Y0059248D01*
X0038767Y0061642D02*
X0039133Y0062314D01*
X0040050Y0062070D02*
X0040048Y0062007D01*
X0040042Y0061945D01*
X0040033Y0061883D01*
X0040020Y0061822D01*
X0040003Y0061761D01*
X0039982Y0061702D01*
X0039958Y0061644D01*
X0039930Y0061588D01*
X0039899Y0061533D01*
X0039865Y0061480D01*
X0039828Y0061430D01*
X0039788Y0061382D01*
X0039744Y0061337D01*
X0039133Y0062314D02*
X0039156Y0062350D01*
X0039183Y0062384D01*
X0039212Y0062416D01*
X0039244Y0062445D01*
X0039278Y0062471D01*
X0039314Y0062494D01*
X0039353Y0062513D01*
X0039392Y0062530D01*
X0039433Y0062542D01*
X0039475Y0062552D01*
X0039518Y0062557D01*
X0039561Y0062559D01*
X0039604Y0062557D01*
X0039646Y0062552D01*
X0039688Y0062542D01*
X0039728Y0062530D01*
X0039768Y0062513D01*
X0039806Y0062493D01*
X0039841Y0062471D01*
X0039875Y0062445D01*
X0039907Y0062416D01*
X0039936Y0062384D01*
X0039962Y0062350D01*
X0039984Y0062315D01*
X0040004Y0062277D01*
X0040021Y0062237D01*
X0040033Y0062197D01*
X0040043Y0062155D01*
X0040048Y0062113D01*
X0040050Y0062070D01*
X0040050Y0063359D02*
X0040050Y0063848D01*
X0040050Y0063603D02*
X0037850Y0063603D01*
X0037850Y0063359D02*
X0037850Y0063848D01*
X0038767Y0061642D02*
X0038744Y0061606D01*
X0038717Y0061572D01*
X0038688Y0061540D01*
X0038656Y0061511D01*
X0038622Y0061485D01*
X0038586Y0061462D01*
X0038547Y0061443D01*
X0038508Y0061426D01*
X0038467Y0061414D01*
X0038425Y0061404D01*
X0038382Y0061399D01*
X0038339Y0061397D01*
X0038296Y0061399D01*
X0038254Y0061404D01*
X0038212Y0061414D01*
X0038172Y0061426D01*
X0038132Y0061443D01*
X0038095Y0061463D01*
X0038059Y0061485D01*
X0038025Y0061511D01*
X0037993Y0061540D01*
X0037964Y0061572D01*
X0037938Y0061606D01*
X0037916Y0061642D01*
X0037896Y0061679D01*
X0037879Y0061719D01*
X0037867Y0061759D01*
X0037857Y0061801D01*
X0037852Y0061843D01*
X0037850Y0061886D01*
X0037852Y0061945D01*
X0037858Y0062004D01*
X0037867Y0062062D01*
X0037880Y0062119D01*
X0037897Y0062176D01*
X0037918Y0062231D01*
X0037941Y0062285D01*
X0037969Y0062338D01*
X0038000Y0062388D01*
X0038033Y0062436D01*
X0038767Y0068056D02*
X0039133Y0068728D01*
X0040050Y0068483D02*
X0040048Y0068420D01*
X0040042Y0068358D01*
X0040033Y0068296D01*
X0040020Y0068235D01*
X0040003Y0068174D01*
X0039982Y0068115D01*
X0039958Y0068057D01*
X0039930Y0068001D01*
X0039899Y0067946D01*
X0039865Y0067893D01*
X0039828Y0067843D01*
X0039788Y0067795D01*
X0039744Y0067750D01*
X0039133Y0068728D02*
X0039156Y0068764D01*
X0039183Y0068798D01*
X0039212Y0068830D01*
X0039244Y0068859D01*
X0039278Y0068885D01*
X0039314Y0068908D01*
X0039353Y0068927D01*
X0039392Y0068944D01*
X0039433Y0068956D01*
X0039475Y0068966D01*
X0039518Y0068971D01*
X0039561Y0068973D01*
X0039561Y0068972D02*
X0039604Y0068970D01*
X0039646Y0068965D01*
X0039688Y0068955D01*
X0039728Y0068943D01*
X0039768Y0068926D01*
X0039806Y0068906D01*
X0039841Y0068884D01*
X0039875Y0068858D01*
X0039907Y0068829D01*
X0039936Y0068797D01*
X0039962Y0068763D01*
X0039984Y0068728D01*
X0040004Y0068690D01*
X0040021Y0068650D01*
X0040033Y0068610D01*
X0040043Y0068568D01*
X0040048Y0068526D01*
X0040050Y0068483D01*
X0039561Y0069832D02*
X0038339Y0069832D01*
X0038339Y0069831D02*
X0038296Y0069833D01*
X0038254Y0069838D01*
X0038212Y0069848D01*
X0038172Y0069860D01*
X0038132Y0069877D01*
X0038095Y0069897D01*
X0038059Y0069919D01*
X0038025Y0069945D01*
X0037993Y0069974D01*
X0037964Y0070006D01*
X0037938Y0070040D01*
X0037916Y0070075D01*
X0037896Y0070113D01*
X0037879Y0070153D01*
X0037867Y0070193D01*
X0037857Y0070235D01*
X0037852Y0070277D01*
X0037850Y0070320D01*
X0037850Y0070809D01*
X0037850Y0071743D02*
X0040050Y0071743D01*
X0040050Y0070809D02*
X0040050Y0070320D01*
X0040048Y0070277D01*
X0040043Y0070235D01*
X0040033Y0070193D01*
X0040021Y0070153D01*
X0040004Y0070113D01*
X0039984Y0070076D01*
X0039962Y0070040D01*
X0039936Y0070006D01*
X0039907Y0069974D01*
X0039875Y0069945D01*
X0039841Y0069919D01*
X0039806Y0069897D01*
X0039768Y0069877D01*
X0039728Y0069860D01*
X0039688Y0069848D01*
X0039646Y0069838D01*
X0039604Y0069833D01*
X0039561Y0069831D01*
X0038033Y0068850D02*
X0038000Y0068802D01*
X0037969Y0068752D01*
X0037941Y0068699D01*
X0037918Y0068645D01*
X0037897Y0068590D01*
X0037880Y0068533D01*
X0037867Y0068476D01*
X0037858Y0068418D01*
X0037852Y0068359D01*
X0037850Y0068300D01*
X0037852Y0068257D01*
X0037857Y0068215D01*
X0037867Y0068173D01*
X0037879Y0068133D01*
X0037896Y0068093D01*
X0037916Y0068056D01*
X0037938Y0068020D01*
X0037964Y0067986D01*
X0037993Y0067954D01*
X0038025Y0067925D01*
X0038059Y0067899D01*
X0038095Y0067877D01*
X0038132Y0067857D01*
X0038172Y0067840D01*
X0038212Y0067828D01*
X0038254Y0067818D01*
X0038296Y0067813D01*
X0038339Y0067811D01*
X0038382Y0067813D01*
X0038425Y0067818D01*
X0038467Y0067828D01*
X0038508Y0067840D01*
X0038547Y0067857D01*
X0038586Y0067876D01*
X0038622Y0067899D01*
X0038656Y0067925D01*
X0038688Y0067954D01*
X0038717Y0067986D01*
X0038744Y0068020D01*
X0038767Y0068056D01*
X0039194Y0071743D02*
X0037850Y0072965D01*
X0038706Y0072232D02*
X0040050Y0072965D01*
X0040050Y0079250D02*
X0040050Y0079983D01*
X0040048Y0080026D01*
X0040043Y0080068D01*
X0040033Y0080110D01*
X0040021Y0080150D01*
X0040004Y0080190D01*
X0039984Y0080228D01*
X0039962Y0080263D01*
X0039936Y0080297D01*
X0039907Y0080329D01*
X0039875Y0080358D01*
X0039841Y0080384D01*
X0039806Y0080406D01*
X0039768Y0080426D01*
X0039728Y0080443D01*
X0039688Y0080455D01*
X0039646Y0080465D01*
X0039604Y0080470D01*
X0039561Y0080472D01*
X0039317Y0080472D01*
X0039274Y0080470D01*
X0039232Y0080465D01*
X0039190Y0080455D01*
X0039150Y0080443D01*
X0039110Y0080426D01*
X0039073Y0080406D01*
X0039037Y0080384D01*
X0039003Y0080358D01*
X0038971Y0080329D01*
X0038942Y0080297D01*
X0038916Y0080263D01*
X0038894Y0080228D01*
X0038874Y0080190D01*
X0038857Y0080150D01*
X0038845Y0080110D01*
X0038835Y0080068D01*
X0038830Y0080026D01*
X0038828Y0079983D01*
X0038828Y0079250D01*
X0037850Y0079250D01*
X0037850Y0080472D01*
X0037850Y0081288D02*
X0040050Y0082021D01*
X0037850Y0082754D01*
D12*
X0037563Y0104185D02*
X0039414Y0104185D01*
X0037563Y0104185D02*
X0037563Y0121115D01*
X0039414Y0121115D01*
X0049886Y0121115D02*
X0051737Y0121115D01*
X0051737Y0104185D01*
X0049886Y0104185D01*
D13*
X0050654Y0118162D03*
X0038646Y0118162D03*
D14*
X0033650Y0086150D02*
X0036150Y0083650D01*
X0036150Y0078650D01*
X0033650Y0076150D01*
X0036150Y0073650D01*
X0036150Y0068650D01*
X0033650Y0066150D01*
X0036150Y0063650D01*
X0036150Y0058650D01*
X0033650Y0056150D01*
X0036150Y0053650D01*
X0036150Y0048650D01*
X0033650Y0046150D01*
X0028650Y0046150D01*
X0026150Y0048650D01*
X0026150Y0053650D01*
X0028650Y0056150D01*
X0026150Y0058650D01*
X0026150Y0063650D01*
X0028650Y0066150D01*
X0026150Y0068650D01*
X0026150Y0073650D01*
X0028650Y0076150D01*
X0026150Y0078650D01*
X0026150Y0083650D01*
X0028650Y0086150D01*
X0033650Y0086150D01*
X0024150Y0083650D02*
X0024150Y0078650D01*
X0021650Y0076150D01*
X0006650Y0076150D01*
X0004150Y0078650D01*
X0004150Y0083650D01*
X0006650Y0086150D01*
X0021650Y0086150D01*
X0024150Y0088650D01*
X0024150Y0093650D01*
X0021650Y0096150D01*
X0006650Y0096150D01*
X0004150Y0093650D01*
X0004150Y0088650D01*
X0006650Y0086150D01*
X0006650Y0076150D02*
X0004150Y0073650D01*
X0004150Y0068650D01*
X0006650Y0066150D01*
X0021650Y0066150D01*
X0024150Y0068650D01*
X0024150Y0073650D01*
X0021650Y0076150D01*
X0021650Y0066150D02*
X0024150Y0063650D01*
X0024150Y0058650D01*
X0021650Y0056150D01*
X0006650Y0056150D01*
X0004150Y0053650D01*
X0004150Y0048650D01*
X0006650Y0046150D01*
X0021650Y0046150D01*
X0024150Y0048650D01*
X0024150Y0053650D01*
X0021650Y0056150D01*
X0021650Y0046150D02*
X0024150Y0043650D01*
X0024150Y0038650D01*
X0021650Y0036150D01*
X0006650Y0036150D01*
X0004150Y0038650D01*
X0004150Y0043650D01*
X0006650Y0046150D01*
X0006650Y0036150D02*
X0004150Y0033650D01*
X0004150Y0028650D01*
X0006650Y0026150D01*
X0021650Y0026150D01*
X0024150Y0023650D01*
X0024150Y0018650D01*
X0021650Y0016150D01*
X0006650Y0016150D01*
X0004150Y0018650D01*
X0004150Y0023650D01*
X0006650Y0026150D01*
X0006650Y0016150D02*
X0004150Y0013650D01*
X0004150Y0008650D01*
X0006650Y0006150D01*
X0011650Y0006150D01*
X0014150Y0008650D01*
X0016650Y0006150D01*
X0021650Y0006150D01*
X0024150Y0008650D01*
X0024150Y0013650D01*
X0021650Y0016150D01*
X0021650Y0026150D02*
X0024150Y0028650D01*
X0024150Y0033650D01*
X0021650Y0036150D01*
X0026150Y0033650D02*
X0026150Y0028650D01*
X0028650Y0026150D01*
X0043650Y0026150D01*
X0046150Y0028650D01*
X0046150Y0033650D01*
X0043650Y0036150D01*
X0028650Y0036150D01*
X0026150Y0033650D01*
X0028650Y0026150D02*
X0026150Y0023650D01*
X0026150Y0018650D01*
X0028650Y0016150D01*
X0043650Y0016150D01*
X0046150Y0018650D01*
X0046150Y0023650D01*
X0043650Y0026150D01*
X0043650Y0016150D02*
X0046150Y0013650D01*
X0046150Y0008650D01*
X0043650Y0006150D01*
X0028650Y0006150D01*
X0026150Y0008650D01*
X0026150Y0013650D01*
X0028650Y0016150D01*
X0025650Y0014150D02*
X0025650Y0007650D01*
X0006650Y0056150D02*
X0004150Y0058650D01*
X0004150Y0063650D01*
X0006650Y0066150D01*
X0006650Y0096150D02*
X0004150Y0098650D01*
X0004150Y0103650D01*
X0006650Y0106150D01*
X0021650Y0106150D01*
X0024150Y0108650D01*
X0024150Y0113650D01*
X0021650Y0116150D01*
X0006650Y0116150D01*
X0004150Y0118650D01*
X0004150Y0123650D01*
X0006650Y0126150D01*
X0021650Y0126150D01*
X0024150Y0123650D01*
X0024150Y0118650D01*
X0021650Y0116150D01*
X0021650Y0106150D02*
X0024150Y0103650D01*
X0024150Y0098650D01*
X0021650Y0096150D01*
X0021650Y0086150D02*
X0024150Y0083650D01*
X0021650Y0126150D02*
X0024150Y0128650D01*
X0024150Y0133650D01*
X0021650Y0136150D01*
X0024150Y0138650D01*
X0024150Y0143650D01*
X0021650Y0146150D01*
X0024150Y0148650D01*
X0024150Y0153650D01*
X0021650Y0156150D01*
X0024150Y0158650D01*
X0024150Y0163650D01*
X0021650Y0166150D01*
X0024150Y0168650D01*
X0024150Y0173650D01*
X0021650Y0176150D01*
X0024150Y0178650D01*
X0024150Y0183650D01*
X0021650Y0186150D01*
X0024150Y0188650D01*
X0024150Y0193650D01*
X0021650Y0196150D01*
X0024150Y0198650D01*
X0024150Y0203650D01*
X0021650Y0206150D01*
X0016650Y0206150D01*
X0014150Y0203650D01*
X0011650Y0206150D01*
X0006650Y0206150D01*
X0004150Y0203650D01*
X0004150Y0198650D01*
X0006650Y0196150D01*
X0021650Y0196150D01*
X0021650Y0186150D02*
X0006650Y0186150D01*
X0004150Y0188650D01*
X0004150Y0193650D01*
X0006650Y0196150D01*
X0006650Y0186150D02*
X0004150Y0183650D01*
X0004150Y0178650D01*
X0006650Y0176150D01*
X0021650Y0176150D01*
X0021650Y0166150D02*
X0006650Y0166150D01*
X0004150Y0163650D01*
X0004150Y0158650D01*
X0006650Y0156150D01*
X0021650Y0156150D01*
X0021650Y0146150D02*
X0006650Y0146150D01*
X0004150Y0148650D01*
X0004150Y0153650D01*
X0006650Y0156150D01*
X0006650Y0146150D02*
X0004150Y0143650D01*
X0004150Y0138650D01*
X0006650Y0136150D01*
X0021650Y0136150D01*
X0006650Y0136150D02*
X0004150Y0133650D01*
X0004150Y0128650D01*
X0006650Y0126150D01*
X0006650Y0116150D02*
X0004150Y0113650D01*
X0004150Y0108650D01*
X0006650Y0106150D01*
X0006650Y0166150D02*
X0004150Y0168650D01*
X0004150Y0173650D01*
X0006650Y0176150D01*
X0045185Y0163550D02*
X0045187Y0163597D01*
X0045193Y0163644D01*
X0045203Y0163691D01*
X0045216Y0163736D01*
X0045234Y0163780D01*
X0045255Y0163822D01*
X0045279Y0163863D01*
X0045307Y0163901D01*
X0045338Y0163937D01*
X0045372Y0163970D01*
X0045408Y0164000D01*
X0045447Y0164027D01*
X0045488Y0164051D01*
X0045531Y0164071D01*
X0045575Y0164087D01*
X0045621Y0164100D01*
X0045667Y0164109D01*
X0045715Y0164114D01*
X0045762Y0164115D01*
X0045809Y0164112D01*
X0045856Y0164105D01*
X0045902Y0164094D01*
X0045947Y0164080D01*
X0045991Y0164061D01*
X0046032Y0164039D01*
X0046072Y0164014D01*
X0046110Y0163985D01*
X0046145Y0163954D01*
X0046178Y0163919D01*
X0046207Y0163882D01*
X0046233Y0163843D01*
X0046256Y0163801D01*
X0046275Y0163758D01*
X0046291Y0163713D01*
X0046303Y0163667D01*
X0046311Y0163621D01*
X0046315Y0163574D01*
X0046315Y0163526D01*
X0046311Y0163479D01*
X0046303Y0163433D01*
X0046291Y0163387D01*
X0046275Y0163342D01*
X0046256Y0163299D01*
X0046233Y0163257D01*
X0046207Y0163218D01*
X0046178Y0163181D01*
X0046145Y0163146D01*
X0046110Y0163115D01*
X0046072Y0163086D01*
X0046033Y0163061D01*
X0045991Y0163039D01*
X0045947Y0163020D01*
X0045902Y0163006D01*
X0045856Y0162995D01*
X0045809Y0162988D01*
X0045762Y0162985D01*
X0045715Y0162986D01*
X0045667Y0162991D01*
X0045621Y0163000D01*
X0045575Y0163013D01*
X0045531Y0163029D01*
X0045488Y0163049D01*
X0045447Y0163073D01*
X0045408Y0163100D01*
X0045372Y0163130D01*
X0045338Y0163163D01*
X0045307Y0163199D01*
X0045279Y0163237D01*
X0045255Y0163278D01*
X0045234Y0163320D01*
X0045216Y0163364D01*
X0045203Y0163409D01*
X0045193Y0163456D01*
X0045187Y0163503D01*
X0045185Y0163550D01*
X0047469Y0013650D02*
X0047469Y0008650D01*
D15*
X0043603Y0158099D02*
X0042769Y0158099D01*
X0043186Y0158099D02*
X0043186Y0159600D01*
X0042769Y0159266D01*
X0042050Y0158724D02*
X0041841Y0158849D01*
X0041633Y0158974D01*
X0041508Y0158348D02*
X0041550Y0158325D01*
X0041593Y0158305D01*
X0041637Y0158288D01*
X0041683Y0158275D01*
X0041730Y0158265D01*
X0041777Y0158258D01*
X0041824Y0158254D01*
X0041872Y0158254D01*
X0041920Y0158258D01*
X0041967Y0158265D01*
X0041841Y0158099D02*
X0041841Y0159600D01*
X0041716Y0159433D02*
X0041687Y0159426D01*
X0041659Y0159415D01*
X0041632Y0159401D01*
X0041607Y0159384D01*
X0041585Y0159364D01*
X0041565Y0159341D01*
X0041548Y0159317D01*
X0041534Y0159290D01*
X0041523Y0159262D01*
X0041516Y0159233D01*
X0041512Y0159203D01*
X0041512Y0159173D01*
X0041516Y0159143D01*
X0041523Y0159113D01*
X0041534Y0159085D01*
X0041548Y0159059D01*
X0041565Y0159034D01*
X0041585Y0159011D01*
X0041608Y0158992D01*
X0041633Y0158974D01*
X0041716Y0159433D02*
X0041763Y0159440D01*
X0041811Y0159444D01*
X0041859Y0159444D01*
X0041906Y0159440D01*
X0041953Y0159433D01*
X0042000Y0159423D01*
X0042046Y0159410D01*
X0042090Y0159393D01*
X0042133Y0159373D01*
X0042175Y0159350D01*
X0042049Y0158725D02*
X0042074Y0158707D01*
X0042097Y0158688D01*
X0042117Y0158665D01*
X0042134Y0158640D01*
X0042148Y0158614D01*
X0042159Y0158586D01*
X0042166Y0158556D01*
X0042170Y0158526D01*
X0042170Y0158496D01*
X0042166Y0158466D01*
X0042159Y0158437D01*
X0042148Y0158409D01*
X0042134Y0158382D01*
X0042117Y0158358D01*
X0042097Y0158335D01*
X0042075Y0158315D01*
X0042050Y0158298D01*
X0042023Y0158284D01*
X0041995Y0158273D01*
X0041966Y0158266D01*
X0040865Y0158516D02*
X0040865Y0159600D01*
X0040865Y0158516D02*
X0040863Y0158476D01*
X0040857Y0158437D01*
X0040848Y0158399D01*
X0040835Y0158361D01*
X0040819Y0158325D01*
X0040799Y0158291D01*
X0040776Y0158258D01*
X0040750Y0158228D01*
X0040721Y0158201D01*
X0040690Y0158176D01*
X0040657Y0158155D01*
X0040621Y0158137D01*
X0040584Y0158122D01*
X0040546Y0158111D01*
X0040507Y0158103D01*
X0040468Y0158099D01*
X0040428Y0158099D01*
X0040389Y0158103D01*
X0040350Y0158111D01*
X0040312Y0158122D01*
X0040275Y0158137D01*
X0040240Y0158155D01*
X0040206Y0158176D01*
X0040175Y0158201D01*
X0040146Y0158228D01*
X0040120Y0158258D01*
X0040097Y0158291D01*
X0040077Y0158325D01*
X0040061Y0158361D01*
X0040048Y0158399D01*
X0040039Y0158437D01*
X0040033Y0158476D01*
X0040031Y0158516D01*
X0040031Y0159600D01*
D16*
X0036831Y0183233D02*
X0036831Y0184807D01*
X0034469Y0184807D01*
X0034469Y0183233D01*
X0030729Y0193469D02*
X0030729Y0195831D01*
X0028957Y0195831D01*
X0028957Y0206264D01*
X0046674Y0206264D01*
X0046674Y0183036D01*
X0028957Y0183036D01*
X0028957Y0193469D01*
X0030729Y0193469D01*
X0028957Y0193469D02*
X0028957Y0195831D01*
X0034469Y0204493D02*
X0036831Y0204493D01*
X0036831Y0206067D01*
X0034469Y0206067D02*
X0034469Y0204493D01*
D17*
X0040257Y0199513D02*
X0043324Y0199513D01*
X0041791Y0189235D02*
X0041791Y0186169D01*
X0043324Y0187702D02*
X0040257Y0187702D01*
M02*
