G75*
%MOIN*%
%OFA0B0*%
%FSLAX25Y25*%
%IPPOS*%
%LPD*%
%AMOC8*
5,1,8,0,0,1.08239X$1,22.5*
%
%ADD10R,0.04634X0.04752*%
%ADD11R,0.09555X0.10343*%
%ADD12C,0.07900*%
%ADD13R,0.04831X0.04437*%
%ADD14R,0.02900X0.09200*%
%ADD15C,0.05750*%
%ADD16R,0.06406X0.08374*%
%ADD17C,0.05224*%
%ADD18C,0.06406*%
%ADD19C,0.06200*%
D10*
X0038705Y0179150D03*
X0045595Y0179150D03*
D11*
X0044650Y0121115D03*
X0044650Y0104185D03*
D12*
X0009150Y0011150D03*
X0009150Y0021150D03*
X0009150Y0031150D03*
X0009150Y0041150D03*
X0009150Y0051150D03*
X0009150Y0061150D03*
X0009150Y0071150D03*
X0009150Y0081150D03*
X0009150Y0091150D03*
X0009150Y0101150D03*
X0009150Y0111150D03*
X0009150Y0121150D03*
X0009150Y0131150D03*
X0009150Y0141150D03*
X0009150Y0151150D03*
X0009150Y0161150D03*
X0009150Y0171150D03*
X0009150Y0181150D03*
X0009150Y0191150D03*
X0009150Y0201150D03*
X0019150Y0201150D03*
X0019150Y0191150D03*
X0019150Y0181150D03*
X0019150Y0171150D03*
X0019150Y0161150D03*
X0019150Y0151150D03*
X0019150Y0141150D03*
X0019150Y0131150D03*
X0019150Y0121150D03*
X0019150Y0111150D03*
X0019150Y0101150D03*
X0019150Y0091150D03*
X0019150Y0081150D03*
X0019150Y0071150D03*
X0019150Y0061150D03*
X0019150Y0051150D03*
X0019150Y0041150D03*
X0019150Y0031150D03*
X0019150Y0021150D03*
X0019150Y0011150D03*
X0031150Y0011150D03*
X0031150Y0021150D03*
X0031150Y0031150D03*
X0031150Y0051150D03*
X0031150Y0061150D03*
X0031150Y0071150D03*
X0031150Y0081150D03*
X0041150Y0031150D03*
X0041150Y0021150D03*
X0041150Y0011150D03*
D13*
X0040304Y0130650D03*
X0046996Y0130650D03*
D14*
X0046150Y0149150D03*
X0041150Y0149150D03*
X0036150Y0149150D03*
X0031150Y0149150D03*
X0031150Y0170150D03*
X0036150Y0170150D03*
X0041150Y0170150D03*
X0046150Y0170150D03*
D15*
X0035650Y0190713D03*
X0035650Y0198587D03*
D16*
X0039056Y0138650D03*
X0027244Y0138650D03*
D17*
X0045650Y0185650D03*
D18*
X0041150Y0158150D03*
X0046650Y0138650D03*
X0033724Y0158224D03*
D19*
X0046697Y0112641D03*
M02*
