%
M48
M72
T01C0.03150
T02C0.03500
T03C0.03800
T04C0.03937
T05C0.04000
%
T01
X45650Y185650
T02
X35650Y190713
X35650Y198587
T03
X46697Y112641
T04
X46650Y138650
X41150Y158150
X33724Y158224
T05
X9150Y11150
X9150Y21150
X9150Y31150
X9150Y41150
X9150Y51150
X9150Y61150
X9150Y71150
X9150Y81150
X9150Y91150
X9150Y101150
X9150Y111150
X9150Y121150
X9150Y131150
X9150Y141150
X9150Y151150
X9150Y161150
X9150Y171150
X9150Y181150
X9150Y191150
X9150Y201150
X19150Y201150
X19150Y191150
X19150Y181150
X19150Y171150
X19150Y161150
X19150Y151150
X19150Y141150
X19150Y131150
X19150Y121150
X19150Y111150
X19150Y101150
X19150Y91150
X19150Y81150
X19150Y71150
X19150Y61150
X19150Y51150
X19150Y41150
X19150Y31150
X19150Y21150
X19150Y11150
X31150Y11150
X31150Y21150
X31150Y31150
X31150Y51150
X31150Y61150
X31150Y71150
X31150Y81150
X41150Y31150
X41150Y21150
X41150Y11150
M30
